<svg width="185" height="62" viewBox="0 0 185 62" fill="none" xmlns="http://www.w3.org/2000/svg">
<path fill-rule="evenodd" clip-rule="evenodd" d="M54.3515 0C49.6604 0 45.1778 1.93848 41.9649 5.35651L26.9249 21.3565C26.5695 21.7346 26.2359 22.121 25.9235 22.5148L0 50H39.3115H145.688H185L159.076 22.5146C158.764 22.1208 158.43 21.7345 158.075 21.3566L143.035 5.35651C139.822 1.93848 135.34 0 130.648 0H54.3515Z" fill="#BAFF00"/>
<mask id="mask0_8_39" style="mask-type:alpha" maskUnits="userSpaceOnUse" x="66" y="8" width="54" height="54">
<rect x="120" y="8" width="54" height="54" transform="rotate(90 120 8)" fill="#D9D9D9"/>
</mask>
<g mask="url(#mask0_8_39)">
<path d="M92.9999 29.9L101.55 21.35C102.152 20.75 102.858 20.4563 103.67 20.4688C104.482 20.4813 105.169 20.7875 105.731 21.3875C106.331 21.925 106.631 22.6121 106.631 23.4487C106.631 24.2854 106.331 25.0046 105.731 25.6062L95.1562 36.1812C94.8874 36.4528 94.5598 36.6801 94.1734 36.8631C93.7869 37.046 93.4041 37.1375 93.0249 37.1375C92.6208 37.1375 92.2262 37.046 91.8412 36.8631C91.4562 36.6801 91.13 36.4528 90.8624 36.1812L80.1937 25.5687C79.6312 24.9671 79.3562 24.2542 79.3687 23.43C79.3812 22.6058 79.6687 21.925 80.2312 21.3875C80.8328 20.7875 81.5457 20.4875 82.3699 20.4875C83.1941 20.4875 83.8874 20.7875 84.4499 21.3875L92.9999 29.9ZM108.056 46.6531C108.056 47.4969 107.765 48.2063 107.182 48.7812C106.6 49.3562 105.904 49.6437 105.094 49.6437L80.9624 49.6437C80.0749 49.6437 79.353 49.3525 78.7968 48.77C78.2406 48.1875 77.9625 47.4913 77.9625 46.6813C77.9625 45.7938 78.2406 45.0719 78.7968 44.5156C79.353 43.9594 80.0749 43.6813 80.9624 43.6813L105.094 43.6813C105.904 43.6813 106.6 43.9594 107.182 44.5156C107.765 45.0719 108.056 45.7844 108.056 46.6531Z" fill="#1A2400"/>
</g>
</svg>
