<svg width="366" height="103" viewBox="0 0 366 103" fill="none" xmlns="http://www.w3.org/2000/svg">
<path d="M4.26667 43V1.4H18.7733C26.0978 1.4 31.4133 3.23111 34.72 6.89333C38.0267 10.52 39.68 15.6222 39.68 22.2C39.68 28.7778 38.0267 33.8978 34.72 37.56C31.4133 41.1867 26.0978 43 18.7733 43H4.26667ZM12.48 36.5467H18.24C21.1911 36.5467 23.6267 36.1022 25.5467 35.2133C27.4667 34.2889 28.8889 32.7778 29.8133 30.68C30.7733 28.5822 31.2533 25.7556 31.2533 22.2C31.2533 18.6444 30.7733 15.8178 29.8133 13.72C28.8889 11.6222 27.4667 10.1289 25.5467 9.24C23.6267 8.31555 21.1911 7.85333 18.24 7.85333H12.48V36.5467ZM45.7042 43V1.4H62.7708C66.3264 1.4 69.2064 1.91555 71.4108 2.94667C73.6153 3.94222 75.2331 5.31111 76.2642 7.05333C77.2953 8.76 77.8108 10.7511 77.8108 13.0267C77.8108 15.6578 77.0997 17.9333 75.6775 19.8533C74.2553 21.7378 72.1575 23.0711 69.3842 23.8533L78.9308 42.68V43H70.2375L61.4375 25.0267H53.7575V43H45.7042ZM53.7575 19H61.7575C64.2819 19 66.2019 18.5733 67.5175 17.72C68.8331 16.8311 69.4908 15.3556 69.4908 13.2933C69.4908 11.2311 68.8153 9.77333 67.4642 8.92C66.1486 8.06667 64.2464 7.64 61.7575 7.64H53.7575V19ZM80.4708 43V42.68L93.2708 1.4H106.177L118.978 42.68V43H110.551L100.097 7.74667H98.8175L88.2575 43H80.4708ZM90.4442 32.1733L92.2575 25.88H106.604L108.418 32.1733H90.4442ZM138.224 43.7467C134.384 43.7467 131.113 42.84 128.411 41.0267C125.744 39.2133 123.7 36.6889 122.278 33.4533C120.891 30.1822 120.197 26.3956 120.197 22.0933C120.197 17.72 120.909 13.9333 122.331 10.7333C123.789 7.53333 125.94 5.06222 128.784 3.32C131.629 1.54222 135.149 0.653332 139.344 0.653332C142.9 0.653332 145.886 1.27555 148.304 2.52C150.758 3.72889 152.678 5.43555 154.064 7.64C155.451 9.80889 156.34 12.3511 156.731 15.2667H148.838C148.411 12.5644 147.38 10.5022 145.744 9.08C144.144 7.62222 141.958 6.89333 139.184 6.89333C135.558 6.89333 132.855 8.22667 131.078 10.8933C129.3 13.56 128.411 17.2933 128.411 22.0933C128.411 27.0711 129.335 30.9111 131.184 33.6133C133.069 36.28 135.806 37.6133 139.398 37.6133C142.455 37.6133 144.802 36.7244 146.438 34.9467C148.109 33.1689 149.033 30.7333 149.211 27.64H137.051V21.6133H156.784V43H150.757V38.0933H149.478C148.731 39.5867 147.486 40.9022 145.744 42.04C144.002 43.1778 141.495 43.7467 138.224 43.7467ZM179.974 43.7467C176.134 43.7467 172.863 42.84 170.161 41.0267C167.494 39.2133 165.45 36.6889 164.028 33.4533C162.641 30.1822 161.947 26.3956 161.947 22.0933C161.947 17.72 162.659 13.9333 164.081 10.7333C165.539 7.53333 167.69 5.06222 170.534 3.32C173.379 1.54222 176.899 0.653332 181.094 0.653332C184.65 0.653332 187.636 1.27555 190.054 2.52C192.508 3.72889 194.428 5.43555 195.814 7.64C197.201 9.80889 198.09 12.3511 198.481 15.2667H190.588C190.161 12.5644 189.13 10.5022 187.494 9.08C185.894 7.62222 183.708 6.89333 180.934 6.89333C177.308 6.89333 174.605 8.22667 172.828 10.8933C171.05 13.56 170.161 17.2933 170.161 22.0933C170.161 27.0711 171.085 30.9111 172.934 33.6133C174.819 36.28 177.556 37.6133 181.148 37.6133C184.205 37.6133 186.552 36.7244 188.188 34.9467C189.859 33.1689 190.783 30.7333 190.961 27.64H178.801V21.6133H198.534V43H192.507V38.0933H191.228C190.481 39.5867 189.236 40.9022 187.494 42.04C185.752 43.1778 183.245 43.7467 179.974 43.7467ZM19.2533 102.8C16.16 102.8 13.5289 102.391 11.36 101.573C9.19111 100.72 7.41333 99.6 6.02667 98.2133C4.64 96.7911 3.60889 95.2267 2.93333 93.52C2.25778 91.8133 1.86667 90.0889 1.76 88.3467H9.38667C9.49333 89.6978 9.92 91.0133 10.6667 92.2933C11.4133 93.5378 12.5156 94.5689 13.9733 95.3867C15.4667 96.1689 17.3156 96.56 19.52 96.56C21.9378 96.56 23.7511 96.0622 24.96 95.0667C26.2044 94.0711 26.8267 92.7378 26.8267 91.0667C26.8267 89.4311 26.2756 88.1333 25.1733 87.1733C24.0711 86.2133 22.6311 85.4311 20.8533 84.8267L15.36 83.0133C13.4044 82.3378 11.5378 81.5378 9.76 80.6133C7.98222 79.6889 6.52444 78.4622 5.38667 76.9333C4.24889 75.4044 3.68 73.4311 3.68 71.0133C3.68 68.56 4.28444 66.4978 5.49333 64.8267C6.73778 63.12 8.44444 61.8222 10.6133 60.9333C12.7822 60.0444 15.2711 59.6 18.08 59.6C21.6711 59.6 24.5333 60.2222 26.6667 61.4667C28.8 62.6756 30.3644 64.2222 31.36 66.1067C32.3556 67.9911 32.9422 70 33.12 72.1333H25.4933C25.3867 71.0667 25.0667 70.0533 24.5333 69.0933C24.0356 68.0978 23.2356 67.2978 22.1333 66.6933C21.0667 66.0533 19.6089 65.7333 17.76 65.7333C15.7333 65.7333 14.1867 66.1778 13.12 67.0667C12.0889 67.92 11.5733 69.04 11.5733 70.4267C11.5733 71.9556 12.1244 73.1644 13.2267 74.0533C14.3644 74.9067 15.84 75.6356 17.6533 76.24L23.1467 78.1067C25.1378 78.7467 27.0044 79.5467 28.7467 80.5067C30.4889 81.4311 31.9111 82.6756 33.0133 84.24C34.1511 85.8044 34.72 87.8667 34.72 90.4267C34.72 94.3022 33.3511 97.3422 30.6133 99.5467C27.9111 101.716 24.1244 102.8 19.2533 102.8ZM41.3292 102V60.4H49.4892V76.4533H68.1025V60.4H76.2625V102H68.1025V83.12H49.4892V102H41.3292ZM101.78 102.747C97.4067 102.747 93.7622 101.876 90.8467 100.133C87.9667 98.3556 85.8156 95.8489 84.3933 92.6133C82.9711 89.3778 82.26 85.5733 82.26 81.2C82.26 76.7911 82.9711 72.9867 84.3933 69.7867C85.8156 66.5511 87.9667 64.0622 90.8467 62.32C93.7622 60.5422 97.4067 59.6533 101.78 59.6533C106.153 59.6533 109.78 60.5422 112.66 62.32C115.576 64.0622 117.727 66.5511 119.113 69.7867C120.536 72.9867 121.247 76.7911 121.247 81.2C121.247 85.5733 120.536 89.3778 119.113 92.6133C117.727 95.8489 115.576 98.3556 112.66 100.133C109.78 101.876 106.153 102.747 101.78 102.747ZM101.78 96.5067C105.549 96.5067 108.322 95.1733 110.1 92.5067C111.913 89.84 112.82 86.0711 112.82 81.2C112.82 76.2933 111.913 72.5244 110.1 69.8933C108.322 67.2267 105.549 65.8933 101.78 65.8933C97.9756 65.8933 95.1844 67.2267 93.4067 69.8933C91.6289 72.5244 90.74 76.2933 90.74 81.2C90.74 86.0711 91.6289 89.84 93.4067 92.5067C95.1844 95.1733 97.9756 96.5067 101.78 96.5067ZM127.267 102V60.4H143.96C149.293 60.4 153.187 61.52 155.64 63.76C158.093 66 159.32 69.0044 159.32 72.7733C159.32 76.5422 158.093 79.5644 155.64 81.84C153.222 84.08 149.329 85.2 143.96 85.2H135.373V102H127.267ZM135.373 78.96H142.893C145.56 78.96 147.587 78.4978 148.973 77.5733C150.396 76.6489 151.107 75.0667 151.107 72.8267C151.107 70.5867 150.396 69.0044 148.973 68.08C147.587 67.12 145.56 66.64 142.893 66.64H135.373V78.96Z" fill="white"/>
<path d="M251.629 7.42406C253.702 3.47423 257.794 1 262.255 1H354C360.627 1 366 6.37258 366 13V90C366 96.6274 360.627 102 354 102H221.849C212.825 102 207.03 92.4144 211.223 84.4241L251.629 7.42406Z" fill="#BAFF00"/>
</svg>
