<svg width="193" height="61" viewBox="0 0 193 61" fill="none" xmlns="http://www.w3.org/2000/svg">
<path fill-rule="evenodd" clip-rule="evenodd" d="M8.01546 0C1.18062 0 -2.50663 8.01694 1.94139 13.2063L13.3836 26.5556C13.7286 27.0566 14.1054 27.5482 14.5148 28.0285L37.5312 55.0285C40.7611 58.8174 45.4897 61 50.4685 61H141.775C146.754 61 151.482 58.8174 154.712 55.0285L177.729 28.0285C178.138 27.5482 178.515 27.0566 178.86 26.5556L190.302 13.2063C194.75 8.01694 191.063 0 184.228 0H164.791H27.4521H8.01546Z" fill="#BAFF00"/>
<path d="M72.26 39.3C71.0467 39.3 70.02 39.14 69.18 38.82C68.3533 38.4867 67.68 38.0533 67.16 37.52C66.6533 36.9867 66.2733 36.4067 66.02 35.78C65.78 35.14 65.64 34.5133 65.6 33.9H68.72C68.7467 34.38 68.8933 34.84 69.16 35.28C69.4267 35.72 69.8267 36.08 70.36 36.36C70.8933 36.64 71.56 36.78 72.36 36.78C73.2267 36.78 73.8667 36.6067 74.28 36.26C74.7067 35.9 74.92 35.4333 74.92 34.86C74.92 34.3133 74.7333 33.8667 74.36 33.52C74 33.1733 73.52 32.9 72.92 32.7L70.66 31.94C69.94 31.7 69.2467 31.4067 68.58 31.06C67.9267 30.7 67.3867 30.2333 66.96 29.66C66.5333 29.0733 66.32 28.3267 66.32 27.42C66.32 26.4867 66.5533 25.7 67.02 25.06C67.5 24.42 68.1533 23.9333 68.98 23.6C69.82 23.2667 70.78 23.1 71.86 23.1C73.2467 23.1 74.34 23.3333 75.14 23.8C75.94 24.2667 76.52 24.86 76.88 25.58C77.2533 26.2867 77.48 27.0267 77.56 27.8H74.44C74.4133 27.4267 74.3067 27.0733 74.12 26.74C73.9467 26.3933 73.6667 26.1133 73.28 25.9C72.8933 25.6867 72.3733 25.58 71.72 25.58C70.9867 25.58 70.44 25.7333 70.08 26.04C69.7333 26.3467 69.56 26.7333 69.56 27.2C69.56 27.7067 69.74 28.1133 70.1 28.42C70.4733 28.7267 70.9667 28.9867 71.58 29.2L73.84 29.96C74.5733 30.2 75.2667 30.5 75.92 30.86C76.5733 31.22 77.1067 31.7 77.52 32.3C77.9467 32.8867 78.16 33.66 78.16 34.62C78.16 36.0733 77.64 37.22 76.6 38.06C75.5733 38.8867 74.1267 39.3 72.26 39.3ZM80.5122 39V23.4H83.8722V29.34H90.5122V23.4H93.8722V39H90.5122V32.06H83.8722V39H80.5122ZM103.398 39.28C101.745 39.28 100.365 38.9533 99.2584 38.3C98.1651 37.6333 97.3451 36.6933 96.7984 35.48C96.2651 34.2667 95.9984 32.84 95.9984 31.2C95.9984 29.5467 96.2651 28.12 96.7984 26.92C97.3451 25.7067 98.1651 24.7733 99.2584 24.12C100.365 23.4533 101.745 23.12 103.398 23.12C105.065 23.12 106.445 23.4533 107.538 24.12C108.632 24.7733 109.445 25.7067 109.978 26.92C110.525 28.12 110.798 29.5467 110.798 31.2C110.798 32.84 110.525 34.2667 109.978 35.48C109.445 36.6933 108.632 37.6333 107.538 38.3C106.445 38.9533 105.065 39.28 103.398 39.28ZM103.398 36.76C104.745 36.76 105.732 36.28 106.358 35.32C106.998 34.3467 107.318 32.9733 107.318 31.2C107.318 29.4133 106.998 28.04 106.358 27.08C105.732 26.12 104.745 25.64 103.398 25.64C102.052 25.64 101.058 26.12 100.418 27.08C99.7918 28.04 99.4784 29.4133 99.4784 31.2C99.4784 32.9733 99.7918 34.3467 100.418 35.32C101.058 36.28 102.052 36.76 103.398 36.76ZM112.926 39V23.4H119.446C121.446 23.4 122.906 23.8267 123.826 24.68C124.746 25.52 125.206 26.6533 125.206 28.08C125.206 29.5067 124.746 30.6467 123.826 31.5C122.92 32.3533 121.46 32.78 119.446 32.78H116.246V39H112.926ZM116.246 30.26H118.946C119.853 30.26 120.56 30.1067 121.066 29.8C121.586 29.48 121.846 28.9133 121.846 28.1C121.846 27.3 121.586 26.74 121.066 26.42C120.56 26.0867 119.853 25.92 118.946 25.92H116.246V30.26Z" fill="#1A2400"/>
</svg>
